<svg xmlns="http://www.w3.org/2000/svg" width="280" height="182" fill="none" viewBox="0 0 280 182"><g clip-path="url(#clip0_hc_dark)"><rect width="280" height="182" fill="#000" rx="4"/><rect width="64" height="182" fill="#000"/><rect width="22" height="3" x="5" y="5" fill="#fff" fill-opacity=".85" rx="1"/><rect width="17.5" height="6.5" x="42.25" y="3.75" fill="#000" stroke="#6FC3DF" stroke-width=".5" rx="1.75"/><rect width="4" height="1" x="49" y="6.5" fill="#E5E5E5"/><rect width="1" height="4" x="50.5" y="5" fill="#E5E5E5"/><rect width="28" height="2" x="5" y="16" fill="#A6A6A6" fill-opacity=".7" rx="1"/><circle cx="7.5" cy="26.5" r="1.5" fill="#A6A6A6" fill-opacity=".7"/><rect width="46" height="2" x="12" y="24.5" fill="#fff" fill-opacity=".85" rx="1"/><rect width="36" height="1.5" x="12" y="29.5" fill="#A6A6A6" fill-opacity=".8" rx=".75"/><circle cx="7.5" cy="42.5" r="1.5" fill="#F38518"/><rect width="46" height="2" x="12" y="40.5" fill="#fff" fill-opacity=".85" rx="1"/><rect width="36" height="1.5" x="12" y="45.5" fill="#A6A6A6" fill-opacity=".8" rx=".75"/><circle cx="7.5" cy="58.5" r="1.5" fill="#A6A6A6" fill-opacity=".7"/><rect width="46" height="2" x="12" y="56.5" fill="#fff" fill-opacity=".85" rx="1"/><rect width="36" height="1.5" x="12" y="61.5" fill="#A6A6A6" fill-opacity=".8" rx=".75"/><rect width="28" height="2" x="5" y="70" fill="#A6A6A6" fill-opacity=".7" rx="1"/><circle cx="7.5" cy="80.5" r="1.5" fill="#A6A6A6" fill-opacity=".7"/><rect width="46" height="2" x="12" y="78.5" fill="#fff" fill-opacity=".85" rx="1"/><rect width="36" height="1.5" x="12" y="83.5" fill="#A6A6A6" fill-opacity=".8" rx=".75"/><rect width="58" height="14" x="3" y="92" fill="#0F4A85" rx="2"/><circle cx="7.5" cy="96.5" r="1.5" fill="#A6A6A6" fill-opacity=".7"/><rect width="46" height="2" x="12" y="94.5" fill="#fff" rx="1"/><rect width="36" height="1.5" x="12" y="99.5" fill="#A6A6A6" fill-opacity=".8" rx=".75"/><circle cx="7.5" cy="112.5" r="1.5" fill="#F38518"/><rect width="46" height="2" x="12" y="110.5" fill="#fff" fill-opacity=".85" rx="1"/><rect width="36" height="1.5" x="12" y="115.5" fill="#A6A6A6" fill-opacity=".8" rx=".75"/><rect width="28" height="2" x="5" y="124" fill="#A6A6A6" fill-opacity=".7" rx="1"/><circle cx="7.5" cy="134.5" r="1.5" fill="#A6A6A6" fill-opacity=".7"/><rect width="46" height="2" x="12" y="132.5" fill="#fff" fill-opacity=".85" rx="1"/><rect width="36" height="1.5" x="12" y="137.5" fill="#A6A6A6" fill-opacity=".8" rx=".75"/><circle cx="7.5" cy="150.5" r="1.5" fill="#A6A6A6" fill-opacity=".7"/><rect width="46" height="2" x="12" y="148.5" fill="#fff" fill-opacity=".85" rx="1"/><rect width="36" height="1.5" x="12" y="153.5" fill="#A6A6A6" fill-opacity=".8" rx=".75"/><path fill="#000" d="M64 0H280V16H64V0Z"/><rect width="80" height="2.5" x="72" y="7" fill="#fff" fill-opacity=".9" rx="1.25"/><rect width="50" height="2" x="156" y="7.25" fill="#A6A6A6" fill-opacity=".8" rx="1"/><rect width="80" height="10" x="192" y="24" fill="#000" rx="5"/><rect width="68" height="1.6" x="198" y="28.2" fill="#fff" fill-opacity=".9" rx=".8"/><rect width="170" height="1.8" x="72" y="40" fill="#fff" fill-opacity=".85" rx=".9"/><rect width="140" height="1.8" x="72" y="44.5" fill="#fff" fill-opacity=".85" rx=".9"/><rect width="100" height="1.8" x="72" y="49" fill="#fff" fill-opacity=".85" rx=".9"/><circle cx="76.75" cy="59.25" r=".75" fill="#fff" fill-opacity=".85"/><rect width="120" height="1.6" x="81" y="58" fill="#fff" fill-opacity=".85" rx=".8"/><circle cx="76.75" cy="64.25" r=".75" fill="#fff" fill-opacity=".85"/><rect width="106" height="1.6" x="81" y="63" fill="#fff" fill-opacity=".85" rx=".8"/><circle cx="76.75" cy="69.25" r=".75" fill="#fff" fill-opacity=".85"/><rect width="92" height="1.6" x="81" y="68" fill="#fff" fill-opacity=".85" rx=".8"/><rect width="50" height="10" x="222" y="78" fill="#000" rx="5"/><rect width="38" height="1.6" x="228" y="82.2" fill="#fff" fill-opacity=".9" rx=".8"/><rect width="199.5" height="13.5" x="72.25" y="94.25" fill="#000" stroke="#6FC3DF" stroke-width=".5" rx="2.75"/><rect width="140" height="1.6" x="76" y="99" fill="#fff" fill-opacity=".85" rx=".8"/><rect width="199.25" height="25.25" x="72.375" y="152.375" fill="#000" stroke="#F38518" stroke-width=".75" rx="3.625"/><rect width="110" height="1.8" x="77" y="158" fill="#A6A6A6" fill-opacity=".85" rx=".9"/><circle cx="78.75" cy="172.75" r="1.75" fill="#A6A6A6" fill-opacity=".9"/><rect width="18" height="2.2" x="84" y="171.6" fill="#A6A6A6" fill-opacity=".9" rx="1.1"/><rect width="12" height="2.2" x="105" y="171.6" fill="#A6A6A6" fill-opacity=".9" rx="1.1"/><circle cx="265.5" cy="172.5" r="2.5" fill="#F38518"/><path fill="#6FC3DF" d="M280 16V17H67C65.8954 17 65 17.8954 65 19V182H64V19C64 17.3431 65.3431 16 67 16H280Z"/></g><defs><clipPath id="clip0_hc_dark"><rect width="280" height="182" fill="#fff" rx="4"/></clipPath></defs></svg>